<?xml version="1.0" encoding="UTF-8"?>
<!DOCTYPE svg PUBLIC "-//W3C//DTD SVG 1.1//EN" "http://www.w3.org/Graphics/SVG/1.1/DTD/svg11.dtd">
<svg xmlns="http://www.w3.org/2000/svg" version="1.1" width="512px" height="512px" style="shape-rendering:geometricPrecision; text-rendering:geometricPrecision; image-rendering:optimizeQuality; fill-rule:evenodd; clip-rule:evenodd" xmlns:xlink="http://www.w3.org/1999/xlink">
<g><path style="opacity:0.998" fill="#feb54a" d="M 232.5,-0.5 C 247.833,-0.5 263.167,-0.5 278.5,-0.5C 368.144,10.3879 435.644,54.7213 481,132.5C 494.123,156.702 502.956,182.369 507.5,209.5C 507.565,209.938 507.399,210.272 507,210.5C 474.965,178.299 442.799,146.299 410.5,114.5C 385.67,113.337 360.67,113.17 335.5,114C 320.594,150.298 305.594,186.465 290.5,222.5C 252.505,186.482 214.505,151.148 176.5,116.5C 151.394,114.524 126.061,113.857 100.5,114.5C 100.167,205.668 100.501,296.668 101.5,387.5C 101.369,388.239 101.536,388.906 102,389.5C 142.035,429.368 181.868,469.368 221.5,509.5C 142.012,497.361 80.5123,457.695 37,390.5C 16.1784,355.868 3.67839,318.535 -0.5,278.5C -0.5,263.167 -0.5,247.833 -0.5,232.5C 10.3875,142.857 54.7208,75.3573 132.5,30C 163.971,13.3053 197.304,3.1386 232.5,-0.5 Z"/></g>
<g><path style="opacity:1" fill="#f8fefa" d="M 176.5,116.5 C 202.503,180.845 228.503,245.179 254.5,309.5C 255.49,335.426 255.824,361.426 255.5,387.5C 244.918,387.82 234.418,387.487 224,386.5C 202.057,333.614 180.39,280.614 159,227.5C 158.5,280.832 158.333,334.166 158.5,387.5C 139.5,387.5 120.5,387.5 101.5,387.5C 100.501,296.668 100.167,205.668 100.5,114.5C 126.061,113.857 151.394,114.524 176.5,116.5 Z"/></g>
<g><path style="opacity:1" fill="#d8d7d7" d="M 410.5,114.5 C 410.5,207.167 410.5,299.833 410.5,392.5C 391.167,392.5 371.833,392.5 352.5,392.5C 352.667,337.499 352.5,282.499 352,227.5C 330.204,280.752 308.704,334.085 287.5,387.5C 276.833,387.5 266.167,387.5 255.5,387.5C 255.824,361.426 255.49,335.426 254.5,309.5C 255.79,308.942 256.623,307.942 257,306.5C 268.463,278.581 279.63,250.581 290.5,222.5C 305.594,186.465 320.594,150.298 335.5,114C 360.67,113.17 385.67,113.337 410.5,114.5 Z"/></g>
<g><path style="opacity:1" fill="#f9880d" d="M 410.5,114.5 C 442.799,146.299 474.965,178.299 507,210.5C 507.399,210.272 507.565,209.938 507.5,209.5C 509.078,217.129 510.412,224.795 511.5,232.5C 511.5,247.833 511.5,263.167 511.5,278.5C 500.612,368.144 456.279,435.644 378.5,481C 347.029,497.695 313.696,507.861 278.5,511.5C 263.167,511.5 247.833,511.5 232.5,511.5C 228.979,510.693 225.312,510.026 221.5,509.5C 181.868,469.368 142.035,429.368 102,389.5C 101.536,388.906 101.369,388.239 101.5,387.5C 120.5,387.5 139.5,387.5 158.5,387.5C 158.333,334.166 158.5,280.832 159,227.5C 180.39,280.614 202.057,333.614 224,386.5C 234.418,387.487 244.918,387.82 255.5,387.5C 266.167,387.5 276.833,387.5 287.5,387.5C 308.704,334.085 330.204,280.752 352,227.5C 352.5,282.499 352.667,337.499 352.5,392.5C 371.833,392.5 391.167,392.5 410.5,392.5C 410.5,299.833 410.5,207.167 410.5,114.5 Z"/></g>
<g><path style="opacity:1" fill="#f9880e" d="M 290.5,222.5 C 279.63,250.581 268.463,278.581 257,306.5C 256.623,307.942 255.79,308.942 254.5,309.5C 228.503,245.179 202.503,180.845 176.5,116.5C 214.505,151.148 252.505,186.482 290.5,222.5 Z"/></g>
</svg>
